<mxfile host="app.diagrams.net" modified="2023-12-08T17:14:43.953Z" agent="Mozilla/5.0 (Windows NT 10.0; Win64; x64) AppleWebKit/537.36 (KHTML, like Gecko) Chrome/120.0.0.0 Safari/537.36" etag="zzYcA6FCA7PgFh879Tmf" version="22.1.7" type="github">
  <diagram id="C5RBs43oDa-KdzZeNtuy" name="Page-1">
    <mxGraphModel dx="958" dy="343" grid="1" gridSize="10" guides="1" tooltips="1" connect="1" arrows="1" fold="1" page="1" pageScale="1" pageWidth="827" pageHeight="1169" math="0" shadow="0">
      <root>
        <mxCell id="WIyWlLk6GJQsqaUBKTNV-0" />
        <mxCell id="WIyWlLk6GJQsqaUBKTNV-1" parent="WIyWlLk6GJQsqaUBKTNV-0" />
        <mxCell id="ML-SsoOrbNoxBmCHIEpF-12" style="edgeStyle=orthogonalEdgeStyle;rounded=0;orthogonalLoop=1;jettySize=auto;html=1;exitX=0.5;exitY=1;exitDx=0;exitDy=0;shadow=0;" edge="1" parent="WIyWlLk6GJQsqaUBKTNV-1" source="WIyWlLk6GJQsqaUBKTNV-3" target="ML-SsoOrbNoxBmCHIEpF-0">
          <mxGeometry relative="1" as="geometry" />
        </mxCell>
        <mxCell id="WIyWlLk6GJQsqaUBKTNV-3" value="Menentukan Spesifikasi Rangkaian" style="rounded=1;whiteSpace=wrap;html=1;fontSize=12;glass=0;strokeWidth=1;shadow=0;" parent="WIyWlLk6GJQsqaUBKTNV-1" vertex="1">
          <mxGeometry x="260" y="80" width="120" height="50" as="geometry" />
        </mxCell>
        <mxCell id="WIyWlLk6GJQsqaUBKTNV-4" value="Ya" style="rounded=0;html=1;jettySize=auto;orthogonalLoop=1;fontSize=11;endArrow=block;endFill=0;endSize=8;strokeWidth=1;shadow=0;labelBackgroundColor=none;edgeStyle=orthogonalEdgeStyle;" parent="WIyWlLk6GJQsqaUBKTNV-1" source="WIyWlLk6GJQsqaUBKTNV-6" edge="1">
          <mxGeometry x="-0.5068" y="20" relative="1" as="geometry">
            <mxPoint as="offset" />
            <mxPoint x="320" y="790" as="targetPoint" />
          </mxGeometry>
        </mxCell>
        <mxCell id="WIyWlLk6GJQsqaUBKTNV-5" value="Tidak" style="edgeStyle=orthogonalEdgeStyle;rounded=0;html=1;jettySize=auto;orthogonalLoop=1;fontSize=11;endArrow=block;endFill=0;endSize=8;strokeWidth=1;shadow=0;labelBackgroundColor=none;" parent="WIyWlLk6GJQsqaUBKTNV-1" source="WIyWlLk6GJQsqaUBKTNV-6" target="WIyWlLk6GJQsqaUBKTNV-7" edge="1">
          <mxGeometry x="-0.0909" y="10" relative="1" as="geometry">
            <mxPoint as="offset" />
          </mxGeometry>
        </mxCell>
        <mxCell id="WIyWlLk6GJQsqaUBKTNV-6" value="Rangkaian Berjalan Sesuai" style="rhombus;whiteSpace=wrap;html=1;shadow=0;fontFamily=Helvetica;fontSize=12;align=center;strokeWidth=1;spacing=6;spacingTop=-4;" parent="WIyWlLk6GJQsqaUBKTNV-1" vertex="1">
          <mxGeometry x="265" y="650" width="110" height="100" as="geometry" />
        </mxCell>
        <mxCell id="ML-SsoOrbNoxBmCHIEpF-27" style="edgeStyle=orthogonalEdgeStyle;rounded=0;orthogonalLoop=1;jettySize=auto;html=1;exitX=0.5;exitY=0;exitDx=0;exitDy=0;entryX=1;entryY=0.5;entryDx=0;entryDy=0;shadow=0;" edge="1" parent="WIyWlLk6GJQsqaUBKTNV-1" source="WIyWlLk6GJQsqaUBKTNV-7" target="ML-SsoOrbNoxBmCHIEpF-6">
          <mxGeometry relative="1" as="geometry">
            <mxPoint x="539.8181818181818" y="520" as="targetPoint" />
          </mxGeometry>
        </mxCell>
        <mxCell id="WIyWlLk6GJQsqaUBKTNV-7" value="Analisis Kesalahan" style="rounded=1;whiteSpace=wrap;html=1;fontSize=12;glass=0;strokeWidth=1;shadow=0;" parent="WIyWlLk6GJQsqaUBKTNV-1" vertex="1">
          <mxGeometry x="480" y="680" width="120" height="40" as="geometry" />
        </mxCell>
        <mxCell id="WIyWlLk6GJQsqaUBKTNV-11" value="Praktikum Berhasil" style="rounded=1;whiteSpace=wrap;html=1;fontSize=12;glass=0;strokeWidth=1;shadow=0;" parent="WIyWlLk6GJQsqaUBKTNV-1" vertex="1">
          <mxGeometry x="260" y="790" width="120" height="40" as="geometry" />
        </mxCell>
        <mxCell id="ML-SsoOrbNoxBmCHIEpF-13" style="edgeStyle=orthogonalEdgeStyle;rounded=0;orthogonalLoop=1;jettySize=auto;html=1;exitX=0.5;exitY=1;exitDx=0;exitDy=0;entryX=0.5;entryY=0;entryDx=0;entryDy=0;shadow=0;" edge="1" parent="WIyWlLk6GJQsqaUBKTNV-1" source="ML-SsoOrbNoxBmCHIEpF-0" target="ML-SsoOrbNoxBmCHIEpF-1">
          <mxGeometry relative="1" as="geometry" />
        </mxCell>
        <mxCell id="ML-SsoOrbNoxBmCHIEpF-0" value="Membuat Tabel Kebenaran" style="rounded=1;whiteSpace=wrap;html=1;fontSize=12;glass=0;strokeWidth=1;shadow=0;" vertex="1" parent="WIyWlLk6GJQsqaUBKTNV-1">
          <mxGeometry x="260" y="160" width="120" height="50" as="geometry" />
        </mxCell>
        <mxCell id="ML-SsoOrbNoxBmCHIEpF-14" style="edgeStyle=orthogonalEdgeStyle;rounded=0;orthogonalLoop=1;jettySize=auto;html=1;exitX=0.5;exitY=1;exitDx=0;exitDy=0;entryX=0.5;entryY=0;entryDx=0;entryDy=0;shadow=0;" edge="1" parent="WIyWlLk6GJQsqaUBKTNV-1" source="ML-SsoOrbNoxBmCHIEpF-1" target="ML-SsoOrbNoxBmCHIEpF-4">
          <mxGeometry relative="1" as="geometry" />
        </mxCell>
        <mxCell id="ML-SsoOrbNoxBmCHIEpF-1" value="Membuat Peta Kernaugh" style="rounded=1;whiteSpace=wrap;html=1;fontSize=12;glass=0;strokeWidth=1;shadow=0;" vertex="1" parent="WIyWlLk6GJQsqaUBKTNV-1">
          <mxGeometry x="260" y="240" width="120" height="50" as="geometry" />
        </mxCell>
        <mxCell id="ML-SsoOrbNoxBmCHIEpF-15" style="edgeStyle=orthogonalEdgeStyle;rounded=0;orthogonalLoop=1;jettySize=auto;html=1;exitX=0.5;exitY=1;exitDx=0;exitDy=0;shadow=0;" edge="1" parent="WIyWlLk6GJQsqaUBKTNV-1" source="ML-SsoOrbNoxBmCHIEpF-4" target="ML-SsoOrbNoxBmCHIEpF-5">
          <mxGeometry relative="1" as="geometry" />
        </mxCell>
        <mxCell id="ML-SsoOrbNoxBmCHIEpF-4" value="Membuat Persamaan Logika" style="rounded=1;whiteSpace=wrap;html=1;fontSize=12;glass=0;strokeWidth=1;shadow=0;" vertex="1" parent="WIyWlLk6GJQsqaUBKTNV-1">
          <mxGeometry x="260" y="320" width="120" height="50" as="geometry" />
        </mxCell>
        <mxCell id="ML-SsoOrbNoxBmCHIEpF-17" style="edgeStyle=orthogonalEdgeStyle;rounded=0;orthogonalLoop=1;jettySize=auto;html=1;exitX=0.5;exitY=1;exitDx=0;exitDy=0;entryX=0.5;entryY=0;entryDx=0;entryDy=0;shadow=0;" edge="1" parent="WIyWlLk6GJQsqaUBKTNV-1" source="ML-SsoOrbNoxBmCHIEpF-5" target="ML-SsoOrbNoxBmCHIEpF-6">
          <mxGeometry relative="1" as="geometry" />
        </mxCell>
        <mxCell id="ML-SsoOrbNoxBmCHIEpF-5" value="Menentukan Gerbang Logika yang Dipilih" style="rounded=1;whiteSpace=wrap;html=1;fontSize=12;glass=0;strokeWidth=1;shadow=0;" vertex="1" parent="WIyWlLk6GJQsqaUBKTNV-1">
          <mxGeometry x="260" y="400" width="120" height="50" as="geometry" />
        </mxCell>
        <mxCell id="ML-SsoOrbNoxBmCHIEpF-19" style="edgeStyle=orthogonalEdgeStyle;rounded=0;orthogonalLoop=1;jettySize=auto;html=1;exitX=0.5;exitY=1;exitDx=0;exitDy=0;entryX=0.5;entryY=0;entryDx=0;entryDy=0;shadow=0;" edge="1" parent="WIyWlLk6GJQsqaUBKTNV-1" source="ML-SsoOrbNoxBmCHIEpF-6" target="ML-SsoOrbNoxBmCHIEpF-18">
          <mxGeometry relative="1" as="geometry" />
        </mxCell>
        <mxCell id="ML-SsoOrbNoxBmCHIEpF-6" value="Mengimplementasikan Persamaan Logika dengan Membuat Rangkaian" style="rounded=1;whiteSpace=wrap;html=1;fontSize=12;glass=0;strokeWidth=1;shadow=0;" vertex="1" parent="WIyWlLk6GJQsqaUBKTNV-1">
          <mxGeometry x="255" y="480" width="130" height="60" as="geometry" />
        </mxCell>
        <mxCell id="ML-SsoOrbNoxBmCHIEpF-20" style="edgeStyle=orthogonalEdgeStyle;rounded=0;orthogonalLoop=1;jettySize=auto;html=1;exitX=0.5;exitY=1;exitDx=0;exitDy=0;entryX=0.5;entryY=0;entryDx=0;entryDy=0;shadow=0;" edge="1" parent="WIyWlLk6GJQsqaUBKTNV-1" source="ML-SsoOrbNoxBmCHIEpF-18" target="WIyWlLk6GJQsqaUBKTNV-6">
          <mxGeometry relative="1" as="geometry" />
        </mxCell>
        <mxCell id="ML-SsoOrbNoxBmCHIEpF-18" value="Simulasikan dan Pengujian Rangkaian" style="rounded=1;whiteSpace=wrap;html=1;fontSize=12;glass=0;strokeWidth=1;shadow=0;" vertex="1" parent="WIyWlLk6GJQsqaUBKTNV-1">
          <mxGeometry x="252.5" y="570" width="135" height="50" as="geometry" />
        </mxCell>
      </root>
    </mxGraphModel>
  </diagram>
</mxfile>
